<svg id="Layer_4" xmlns="http://www.w3.org/2000/svg" viewBox="0 0 839 200"><style>.st0{fill:none}.st1{fill:#ffc107}.st2{fill:#0f9d58}.st3{fill:#bf360c}.st3,.st4,.st5{opacity:.2;enable-background:new}.st4{fill:#263238}.st5{fill:#fff}.st6{fill:url(#XMLID_2_)}.st7{fill:url(#XMLID_3_)}.st8{fill:#4285f4}.st9{fill:#db4437}.st10,.st11{opacity:.2;fill:#1a237e;enable-background:new}.st11{fill:#3e2723}.st12{fill:url(#XMLID_4_)}.st13{fill:#fff}.st14{font-family:'ProductSans-Bold'}.st15{font-size:80.1919px}.st16{font-family:'ProductSans-Regular'}.st17{font-size:59.6641px}</style><g id="XMLID_60_"><g id="XMLID_61_"><g id="XMLID_62_"><path id="XMLID_106_" class="st0" d="M122.5 90.6L70.1 0H0l57.8 100L0 200h70.1l52.4-90.6c3.3-5.8 3.3-13 0-18.8z"/><path id="XMLID_105_" class="st1" d="M92.4 159.8l-16.6-28.7L35.9 200h34.2l22.8-39.4-.5-.8z"/><path id="XMLID_104_" class="st0" d="M122.5 90.6L70.1 0H0l57.8 100L0 200h70.1l52.4-90.6c3.3-5.8 3.3-13 0-18.8z"/><path id="XMLID_103_" class="st2" d="M57.8 100l18 31.1L35.9 200H0l57.8-100z"/><path id="XMLID_102_" class="st0" d="M122.5 90.6L70.1 0H0l57.8 100L0 200h70.1l52.4-90.6c3.3-5.8 3.3-13 0-18.8z"/><path id="XMLID_101_" class="st3" d="M70.1 198.4H36.8l-.9 1.6h34.2l22.8-39.4-.5-.8-22.3 38.6z"/><path id="XMLID_100_" class="st0" d="M122.5 90.6L70.1 0H0l57.8 100L0 200h70.1l52.4-90.6c3.3-5.8 3.3-13 0-18.8z"/><path id="XMLID_99_" class="st4" d="M.9 198.4L0 200h35.9l.9-1.6H.9z"/><path id="XMLID_98_" class="st0" d="M122.5 90.6L70.1 0H0l57.8 100L0 200h70.1l52.4-90.6c3.3-5.8 3.3-13 0-18.8z"/><path id="XMLID_96_" class="st5" d="M0 200h.9l57.4-99.2-.5-.8L0 200z"/><path id="XMLID_94_" class="st0" d="M122.5 90.6L70.1 0H0l57.8 100L0 200h70.1l52.4-90.6c3.3-5.8 3.3-13 0-18.8z"/><radialGradient id="XMLID_2_" cx="92.62" cy="-1521.501" r="69.162" gradientTransform="translate(0 1681.46)" gradientUnits="userSpaceOnUse"><stop offset="0" stop-color="#bf360c" stop-opacity=".2"/><stop offset="1" stop-color="#bf360c" stop-opacity=".02"/></radialGradient><path id="XMLID_92_" class="st6" d="M92.9 160.6l-17.1-29.5-4.2 7.2 21.3 22.3z"/><path id="XMLID_90_" class="st0" d="M122.5 90.6L70.1 0H0l57.8 100L0 200h70.1l52.4-90.6c3.3-5.8 3.3-13 0-18.8z"/><radialGradient id="XMLID_3_" cx="92.423" cy="-1521.063" r="69.723" gradientTransform="translate(0 1681.46)" gradientUnits="userSpaceOnUse"><stop offset="0" stop-color="#263238" stop-opacity=".2"/><stop offset="1" stop-color="#263238" stop-opacity=".02"/></radialGradient><path id="XMLID_89_" class="st7" d="M71.6 138.3l4.2-7.2-18-31.1-8.5 14.8 22.3 23.5z"/><path id="XMLID_88_" class="st0" d="M122.5 90.6L70.1 0H0l57.8 100L0 200h70.1l52.4-90.6c3.3-5.8 3.3-13 0-18.8z"/><g id="XMLID_85_"><g id="XMLID_86_"><path id="XMLID_87_" class="st8" d="M35.9 0H0l92.9 160.6 17.9-31.1L35.9 0z"/></g></g><path id="XMLID_84_" class="st0" d="M122.5 90.6L70.1 0H0l57.8 100L0 200h70.1l52.4-90.6c3.3-5.8 3.3-13 0-18.8z"/><path id="XMLID_83_" class="st9" d="M122.5 109.4c3.4-5.8 3.4-13 0-18.8L70.1 0H35.9l74.9 129.5 11.7-20.1z"/><path id="XMLID_82_" class="st0" d="M122.5 90.6L70.1 0H0l57.8 100L0 200h70.1l52.4-90.6c3.3-5.8 3.3-13 0-18.8z"/><path id="XMLID_71_" class="st10" d="M110.8 129.5l-.4-.8L92.9 159 .9 0H0l92.9 160.6 17.9-31.1z"/><path id="XMLID_69_" class="st0" d="M122.5 90.6L70.1 0H0l57.8 100L0 200h70.1l52.4-90.6c3.3-5.8 3.3-13 0-18.8z"/><path id="XMLID_67_" class="st5" d="M70.1 1.6l52.4 90.6c1.5 2.7 2.3 5.6 2.5 8.6.1-3.5-.7-7-2.5-10.2L70.1 0H0l.9 1.6h69.2z"/><path id="XMLID_66_" class="st0" d="M122.5 90.6L70.1 0H0l57.8 100L0 200h70.1l52.4-90.6c3.3-5.8 3.3-13 0-18.8z"/><path id="XMLID_65_" class="st11" d="M110.8 129.5l11.6-20.1c1.8-3.1 2.6-6.7 2.5-10.2-.1 3-.9 5.9-2.5 8.6l-12.1 20.9.5.8z"/><path id="XMLID_64_" class="st0" d="M122.5 90.6L70.1 0H0l57.8 100L0 200h70.1l52.4-90.6c3.3-5.8 3.3-13 0-18.8z"/><radialGradient id="XMLID_4_" cx="-1.563" cy="-1679.898" r="209.922" gradientTransform="translate(0 1681.46)" gradientUnits="userSpaceOnUse"><stop offset="0" stop-color="#fff" stop-opacity=".1"/><stop offset="1" stop-color="#fff" stop-opacity="0"/></radialGradient><path id="XMLID_63_" class="st12" d="M122.5 90.6L70.1 0H0l57.8 100L0 200h70.1l52.4-90.6c3.3-5.8 3.3-13 0-18.8z"/></g></g></g><text transform="translate(146.616 92.266)" class="st13 st14 st15">GDG HYDERABAD</text><text transform="translate(159 167.048)" class="st13 st16 st17">Connect | Code | Innovate</text></svg>